# xmcd CD database file
#
# Track frame offsets:
#	151
#	16674
#	33483
#
# Disc length: 765 seconds
#
# Revision: 2
# Processed by: cddbd v1.5.1PL0 Copyright (c) Steve Scherf et al.
# Submitted via: CDex 1.51
#
DISCID=1602fb03
DTITLE=Miranda Sex Garden - Tonight/Sex Garden
DYEAR=2000
DGENRE=Rock
TTITLE0=Tonight (RadioEdit)
TTITLE1=Sex Garden (Radio Edit)
TTITLE2=Sex Garden
EXTD=YEAR: 2000
EXTT0=
EXTT1=
EXTT2=
PLAYORDER=
